<?xml version="1.0" standalone="no"?>
<!DOCTYPE svg PUBLIC "-//W3C//DTD SVG 20010904//EN"
 "http://www.w3.org/TR/2001/REC-SVG-20010904/DTD/svg10.dtd">
<svg version="1.0" xmlns="http://www.w3.org/2000/svg"
 width="640.000000pt" height="640.000000pt" viewBox="0 0 640.000000 640.000000"
 preserveAspectRatio="xMidYMid meet">
<metadata>
Created by potrace 1.14, written by Peter Selinger 2001-2017
</metadata>
<g transform="translate(0.000000,640.000000) scale(0.100000,-0.100000)"
fill="#000000" stroke="none">
<path d="M1499 6067 c-23 -17 -89 -123 -89 -142 0 -41 70 8 99 70 21 45 28 85
14 85 -5 0 -15 -6 -24 -13z"/>
<path d="M2010 5920 c-25 -3 -56 -12 -70 -20 -63 -36 -100 -64 -100 -75 0 -35
-101 -89 -163 -86 -51 1 -69 -10 -106 -64 -38 -56 -39 -62 -5 -36 26 20 54 28
54 15 0 -4 -20 -29 -45 -55 -25 -26 -45 -55 -45 -63 0 -9 -12 -16 -32 -18 -25
-2 -34 -8 -36 -25 -3 -18 1 -23 20 -23 13 0 32 6 43 13 11 7 40 19 65 26 25 7
71 28 102 47 85 49 143 66 238 70 47 1 88 3 91 3 4 1 9 10 12 21 3 12 14 20
25 20 12 0 24 5 28 12 5 8 -2 9 -25 5 -23 -5 -44 -1 -72 13 -21 11 -39 22 -39
24 0 1 18 22 40 46 22 24 40 47 40 51 0 8 157 58 235 75 73 16 33 29 -90 29
-66 0 -140 -2 -165 -5z m-73 -175 c4 -13 -42 -41 -84 -50 -40 -8 -44 7 -11 42
17 18 31 23 57 21 19 -2 36 -8 38 -13z"/>
<path d="M2620 5901 c0 -5 21 -12 48 -16 87 -13 261 -68 382 -121 41 -18 104
-45 140 -59 36 -15 109 -50 164 -77 100 -50 126 -54 126 -19 0 15 -9 22 -37
26 -21 4 -90 31 -154 61 -64 30 -120 54 -125 54 -5 0 -35 14 -67 30 -33 16
-64 27 -71 24 -7 -3 -24 9 -40 26 -35 40 -61 50 -181 66 -116 16 -185 18 -185
5z"/>
<path d="M4437 5793 c-4 -42 -1 -55 33 -113 21 -36 52 -94 70 -129 40 -79 70
-121 87 -121 7 0 22 -9 34 -21 15 -15 19 -28 14 -50 -8 -33 8 -77 90 -259 95
-208 108 -247 93 -281 -17 -38 -35 -37 -43 4 -4 17 -29 68 -56 112 -27 43 -49
85 -49 91 0 18 -30 45 -41 39 -5 -4 -9 -24 -9 -46 0 -21 -2 -39 -4 -39 -20 0
-99 58 -115 85 -25 43 -48 48 -26 6 8 -16 18 -31 23 -33 20 -8 202 -430 202
-471 0 -6 4 -18 9 -26 7 -12 13 -12 24 -3 24 21 98 12 123 -15 12 -13 24 -23
28 -23 4 0 7 39 6 88 0 48 0 100 0 115 0 16 -10 52 -23 81 -13 29 -24 70 -24
92 -1 21 -13 66 -28 99 -32 73 -55 171 -55 245 0 45 -8 68 -40 128 -46 84 -48
92 -19 92 21 0 82 -56 126 -115 15 -20 20 -23 16 -10 -9 29 -39 71 -102 143
-52 59 -58 63 -89 57 -32 -6 -33 -5 -62 61 -17 37 -53 93 -80 124 -28 32 -50
64 -50 73 0 16 -37 67 -49 67 -5 0 -11 -21 -14 -47z"/>
<path d="M2245 5611 c14 -14 143 -19 147 -6 2 6 -30 11 -77 13 -54 2 -77 0
-70 -7z"/>
<path d="M2575 5606 c-19 -15 -19 -17 -3 -30 10 -7 51 -16 90 -19 75 -5 227
-51 273 -81 14 -9 31 -29 38 -44 14 -32 39 -56 87 -81 19 -11 76 -59 125 -109
50 -49 119 -110 154 -135 35 -26 75 -64 90 -84 15 -21 105 -117 200 -213 95
-96 197 -208 227 -248 30 -39 72 -84 92 -100 63 -48 86 -77 134 -173 26 -52
54 -103 62 -114 14 -18 14 -15 9 36 -7 70 7 82 48 43 81 -78 -26 95 -189 304
-55 72 -68 83 -88 78 -19 -5 -45 16 -170 141 -139 140 -187 204 -166 225 5 5
27 -4 52 -21 25 -16 46 -28 49 -26 5 6 -61 79 -166 183 -83 83 -123 101 -83
38 11 -19 20 -36 20 -39 0 -3 -21 2 -47 11 -29 11 -52 27 -62 44 -9 16 -23 28
-32 28 -38 0 -111 34 -132 62 -12 16 -32 40 -44 52 -23 24 -31 66 -13 66 6 0
55 -30 109 -66 55 -36 104 -63 110 -59 18 11 12 33 -10 40 -12 4 -38 22 -58
40 -45 41 -210 119 -306 146 -38 10 -95 29 -125 40 -189 74 -246 87 -275 65z"/>
<path d="M3666 5508 c20 -33 70 -88 82 -88 23 0 12 32 -22 66 -33 33 -76 48
-60 22z"/>
<path d="M4540 5411 c0 -3 11 -23 25 -43 14 -21 30 -49 35 -64 17 -43 20 -24
7 40 -11 52 -15 61 -39 67 -16 4 -28 4 -28 0z"/>
<path d="M928 5252 c-46 -49 -62 -73 -147 -225 -72 -130 -81 -152 -59 -145 15
5 101 143 115 184 6 17 27 52 47 79 44 57 90 134 84 140 -2 3 -20 -12 -40 -33z"/>
<path d="M3664 5236 c-17 -13 -16 -15 8 -39 18 -17 33 -24 47 -20 29 7 26 25
-8 51 -24 18 -31 19 -47 8z"/>
<path d="M3820 5243 c0 -26 178 -313 211 -340 9 -7 26 -34 38 -61 21 -44 22
-53 10 -78 -12 -25 -11 -37 9 -104 48 -154 120 -299 142 -285 23 14 -33 191
-74 235 -26 28 -59 117 -47 124 4 3 14 -7 22 -22 7 -15 32 -48 56 -75 23 -26
54 -68 70 -92 15 -25 31 -45 36 -45 15 0 6 57 -14 95 -12 22 -37 70 -55 106
-23 44 -47 74 -71 90 -26 17 -39 34 -44 57 -14 68 -289 445 -289 395z"/>
<path d="M1843 5192 c-48 -4 -63 -25 -30 -46 12 -8 60 -16 107 -19 63 -3 103
-12 150 -32 36 -15 88 -36 116 -47 28 -11 71 -37 95 -59 l44 -40 -40 6 c-22 4
-126 36 -231 71 -170 57 -238 75 -222 59 3 -3 41 -21 84 -39 44 -18 102 -48
130 -67 28 -19 73 -47 99 -64 26 -16 82 -51 124 -77 42 -27 108 -63 147 -82
73 -35 117 -77 107 -102 -8 -20 -57 -17 -77 5 -10 11 -32 25 -49 32 -18 7 -47
24 -65 37 -18 14 -60 33 -95 42 -59 17 -204 73 -237 91 -48 27 -208 101 -229
106 -15 3 -44 14 -66 24 -56 26 -81 24 -112 -11 -14 -16 -35 -30 -46 -30 -36
0 -101 -38 -154 -90 -40 -39 -69 -84 -128 -203 -75 -149 -77 -154 -85 -252 -5
-55 -18 -125 -29 -157 -32 -94 -54 -338 -32 -353 17 -10 28 27 35 113 13 158
115 495 168 552 21 22 22 22 29 4 14 -35 9 -70 -21 -152 -16 -46 -30 -88 -30
-95 1 -23 30 38 55 116 14 43 32 91 40 107 8 15 21 69 29 119 17 102 29 131
54 131 46 0 53 -45 21 -135 -14 -41 -19 -73 -15 -101 3 -27 0 -48 -9 -60 -7
-11 -16 -38 -20 -60 -4 -21 -17 -70 -30 -109 -13 -38 -29 -115 -35 -170 -6
-55 -18 -138 -26 -185 -19 -117 -19 -481 1 -675 18 -176 23 -203 41 -230 8
-11 14 -30 14 -43 0 -16 18 -41 51 -73 l51 -49 -5 37 c-5 38 -43 197 -78 328
-24 92 -49 277 -49 367 0 82 22 206 53 296 20 61 21 64 3 96 -10 18 -16 46
-14 61 4 36 28 46 28 12 0 -35 20 -87 34 -87 18 0 120 90 125 109 5 24 21 41
40 41 29 0 41 19 28 47 -9 21 -6 28 28 63 27 28 48 40 67 40 21 0 33 8 48 33
35 60 43 64 52 29 5 -18 12 -32 17 -32 29 0 109 71 136 120 28 49 35 55 61 53
34 -3 79 36 86 72 2 13 12 21 31 23 22 3 27 -1 27 -17 0 -14 8 -22 28 -27 15
-3 35 -8 44 -11 12 -3 22 4 30 21 9 20 16 25 32 20 33 -11 100 -5 140 11 19 8
43 15 51 15 9 0 52 -33 95 -72 153 -142 221 -200 227 -194 6 5 -57 82 -154
188 -48 53 -52 64 -23 73 10 3 32 26 47 50 15 24 34 44 42 45 13 0 67 -53 166
-160 45 -49 86 -118 190 -324 50 -99 96 -181 103 -184 23 -7 12 50 -24 132
-20 44 -58 129 -85 188 -27 59 -49 111 -49 117 0 14 17 14 25 1 9 -15 35 -12
42 6 7 18 -30 60 -72 81 -16 9 -47 33 -67 54 -20 22 -44 39 -52 39 -18 0 -131
95 -252 211 -83 81 -164 129 -217 129 -33 0 -118 42 -167 82 -37 31 -162 79
-252 97 -57 12 -177 18 -245 13z m-185 -344 c-3 -25 -25 -33 -47 -19 -21 14
-5 41 24 41 22 0 26 -4 23 -22z m-31 -229 c2 -103 -20 -210 -39 -191 -16 16
-16 242 0 270 25 44 37 20 39 -79z"/>
<path d="M1182 4955 c-77 -88 -120 -151 -141 -209 -26 -70 -21 -86 7 -23 11
25 35 60 52 79 18 18 44 49 59 68 14 19 33 43 43 53 17 19 33 66 25 74 -3 2
-23 -17 -45 -42z"/>
<path d="M894 4943 c-25 -61 -29 -99 -10 -106 13 -5 21 2 32 28 8 19 19 35 24
35 13 0 13 36 0 61 -16 28 -28 23 -46 -18z"/>
<path d="M4355 4819 c-4 -5 9 -33 28 -62 47 -72 54 -85 91 -190 37 -105 46
-177 21 -177 -9 0 -18 6 -21 14 -3 8 -11 17 -19 19 -7 3 2 -16 20 -43 28 -42
33 -59 39 -140 4 -50 5 -95 1 -98 -11 -12 -65 57 -65 83 0 13 -13 61 -30 106
-16 46 -34 115 -39 155 -5 45 -17 83 -29 100 -12 16 -26 49 -32 73 -6 23 -14
41 -16 38 -3 -3 2 -29 10 -58 9 -29 16 -64 16 -79 0 -14 7 -36 16 -48 9 -13
20 -57 25 -99 6 -47 20 -96 38 -132 28 -56 60 -218 66 -341 4 -64 45 -202 62
-207 12 -4 55 74 57 105 1 9 9 29 20 44 14 21 16 34 8 55 -20 61 45 127 87 89
18 -16 18 -15 0 50 -10 37 -25 77 -33 90 -11 15 -12 24 -4 26 15 5 -6 67 -46
136 -58 100 -72 127 -94 183 -13 30 -20 62 -17 70 7 20 -67 168 -99 198 -14
13 -26 27 -26 31 0 13 -29 20 -35 9z m300 -746 c5 -18 2 -23 -13 -23 -11 0
-24 6 -29 13 -12 15 -33 98 -39 152 -3 37 -1 34 35 -40 21 -44 42 -90 46 -102z
m-122 11 c56 -74 41 -108 -26 -53 -31 26 -37 36 -37 71 0 51 13 47 63 -18z m7
-164 c0 -5 -2 -10 -4 -10 -3 0 -8 5 -11 10 -3 6 -1 10 4 10 6 0 11 -4 11 -10z"/>
<path d="M4576 4745 c-6 -40 -2 -55 37 -137 25 -51 59 -127 76 -168 56 -133
74 -170 88 -182 7 -6 13 -7 13 -2 0 28 -78 226 -115 291 -24 43 -46 89 -48
103 -19 93 -31 140 -37 140 -4 0 -11 -20 -14 -45z"/>
<path d="M3902 4733 c2 -10 11 -19 21 -21 16 -3 17 -1 7 17 -13 25 -33 28 -28
4z"/>
<path d="M594 4684 c-4 -10 -9 -22 -11 -26 -2 -5 0 -8 6 -8 11 0 26 39 17 47
-3 3 -9 -3 -12 -13z"/>
<path d="M3205 4666 c16 -14 63 -39 105 -56 41 -17 81 -34 89 -37 9 -4 12 -1
9 8 -5 16 -159 94 -203 103 l-30 6 30 -24z"/>
<path d="M5011 4641 c-16 -10 -5 -35 33 -70 14 -14 26 -31 26 -38 0 -11 5 -11
20 -3 23 12 17 29 -29 87 -28 36 -30 37 -50 24z"/>
<path d="M925 4466 c-41 -69 -94 -256 -74 -256 13 0 94 171 113 237 12 44 12
52 0 57 -9 3 -23 -10 -39 -38z"/>
<path d="M3550 4452 c0 -5 20 -22 45 -40 55 -38 59 -29 8 16 -38 32 -53 39
-53 24z"/>
<path d="M3441 4413 c12 -21 34 -51 49 -68 24 -26 77 -97 144 -192 11 -15 21
-22 23 -16 7 19 -107 194 -165 256 -63 66 -84 74 -51 20z"/>
<path d="M4820 4374 c0 -11 5 -53 10 -94 12 -89 4 -170 -17 -170 -11 0 -12 -9
-7 -37 11 -60 54 -131 54 -89 0 23 17 28 42 12 32 -20 64 -5 83 39 14 35 16
37 54 30 36 -6 39 -5 49 23 6 17 20 33 31 37 31 10 25 41 -14 71 -19 14 -35
32 -35 39 0 37 -103 118 -173 135 -18 5 -42 12 -54 15 -18 6 -23 3 -23 -11z
m96 -22 c6 -4 21 -26 33 -49 12 -24 28 -43 35 -43 15 0 76 -47 76 -58 0 -13
-79 -52 -93 -46 -17 6 -33 38 -41 79 -3 17 -12 51 -20 78 -15 46 -13 54 10 39z
m-38 -307 c-3 -3 -9 2 -12 12 -6 14 -5 15 5 6 7 -7 10 -15 7 -18z"/>
<path d="M3950 4123 c0 -11 18 -40 41 -64 l41 -44 -27 50 c-15 28 -34 57 -41
65 -12 12 -14 12 -14 -7z"/>
<path d="M5122 4031 c30 -24 62 -30 38 -7 -8 8 -26 17 -40 21 l-25 7 27 -21z"/>
<path d="M4064 3935 c-17 -20 -28 -38 -24 -40 12 -7 71 55 64 66 -7 12 -5 13
-40 -26z"/>
<path d="M4346 3925 c8 -50 14 -58 14 -19 0 16 -5 36 -11 44 -7 11 -8 4 -3
-25z"/>
<path d="M4842 3938 c-15 -15 -16 -48 -2 -48 6 0 20 -20 32 -45 24 -49 44 -57
57 -22 6 16 3 32 -15 62 -30 51 -55 70 -72 53z"/>
<path d="M3839 3810 l-24 -20 33 11 c17 6 32 15 32 20 0 15 -16 10 -41 -11z"/>
<path d="M1130 3810 c0 -5 5 -10 10 -10 6 0 10 5 10 10 0 6 -4 10 -10 10 -5 0
-10 -4 -10 -10z"/>
<path d="M4347 3807 c-10 -28 -8 -97 3 -97 15 0 23 48 13 83 -7 27 -10 29 -16
14z"/>
<path d="M3710 3765 c0 -29 16 -32 48 -9 32 22 27 34 -13 34 -31 0 -35 -3 -35
-25z"/>
<path d="M3571 3715 c-23 -14 -48 -25 -55 -25 -17 1 -244 -111 -288 -142 -37
-26 -35 -36 7 -44 36 -6 88 19 160 79 18 15 39 27 47 27 8 0 35 13 60 29 25
16 55 32 66 36 26 8 112 55 112 61 0 14 -72 0 -109 -21z"/>
<path d="M4170 3700 c-8 -5 -44 -19 -80 -31 -36 -11 -113 -43 -171 -70 -58
-27 -114 -49 -125 -49 -10 0 -55 -15 -99 -34 -220 -91 -254 -108 -249 -121 3
-7 -2 -28 -11 -45 -9 -18 -14 -34 -11 -37 6 -6 115 43 136 61 8 8 41 21 74 31
l59 16 33 -32 c19 -18 34 -42 34 -52 0 -38 132 -9 204 46 16 12 17 18 8 46 -6
17 -9 38 -6 45 5 13 46 36 66 36 11 0 7 -40 -7 -72 -11 -27 30 -23 49 4 14 20
14 24 0 39 -11 13 -13 27 -8 55 8 42 38 76 109 121 25 15 47 34 50 40 5 15
-33 17 -55 3z m-252 -277 c4 -30 -33 -52 -98 -60 -47 -5 -52 -4 -48 13 2 10
17 25 33 33 17 7 41 20 55 27 34 17 54 13 58 -13z"/>
<path d="M1093 3613 c-6 -25 -17 -42 -33 -50 -13 -7 -27 -20 -31 -30 -3 -9 -5
-94 -4 -188 2 -132 6 -178 19 -205 l16 -35 -5 60 c-13 170 -13 169 20 175 l30
5 6 95 c10 144 10 210 0 210 -5 0 -13 -17 -18 -37z"/>
<path d="M4357 3623 c-11 -10 -8 -53 3 -53 6 0 10 14 10 30 0 31 -2 35 -13 23z"/>
<path d="M1207 3523 c-4 -3 -7 -33 -7 -65 0 -33 -5 -79 -11 -103 -8 -31 -8
-49 0 -64 6 -11 16 -44 21 -72 14 -73 50 -192 57 -186 3 3 -2 50 -11 104 -8
54 -18 148 -22 208 -9 170 -13 193 -27 178z"/>
<path d="M577 3402 c-4 -29 -5 -69 -2 -90 19 -117 50 -222 66 -222 10 0 5 34
-23 155 -12 50 -24 117 -27 150 l-7 60 -7 -53z"/>
<path d="M2360 3195 c-123 -29 -199 -45 -221 -45 -13 0 -32 -7 -42 -15 -11 -7
-38 -17 -60 -20 -102 -17 -338 -82 -354 -99 -11 -11 65 3 111 20 25 10 53 13
77 9 28 -5 61 1 129 24 53 17 135 35 196 42 75 8 110 17 126 30 11 11 31 19
43 19 36 0 85 21 85 36 0 17 -18 17 -90 -1z"/>
<path d="M927 3170 c3 -19 10 -42 15 -50 12 -20 -1 49 -13 70 -5 9 -6 2 -2
-20z"/>
<path d="M711 3130 c0 -30 4 -74 9 -96 5 -23 14 -105 19 -183 7 -103 14 -149
26 -167 22 -35 28 -25 16 27 -6 24 -11 78 -11 119 0 41 -10 118 -21 170 -11
52 -24 115 -29 140 l-8 45 -1 -55z"/>
<path d="M951 3095 c-1 -6 3 -25 9 -44 14 -52 2 -57 -40 -16 l-38 37 2 -93 c1
-66 5 -94 14 -97 24 -8 132 21 132 35 0 8 -12 37 -26 66 -15 28 -32 67 -40 87
-7 19 -13 30 -13 25z"/>
<path d="M1351 2990 c0 -19 11 -55 24 -80 31 -58 31 -42 1 46 -22 61 -25 65
-25 34z"/>
<path d="M2430 2974 c-25 -7 -57 -13 -72 -13 -15 -1 -87 -21 -160 -45 -73 -25
-167 -52 -208 -61 -81 -19 -190 -49 -313 -90 -84 -27 -117 -23 -117 14 0 10
-6 34 -14 52 -12 28 -16 31 -21 16 -4 -10 -5 -31 -2 -47 4 -16 2 -32 -3 -35
-17 -11 -11 -41 13 -62 34 -30 51 -33 83 -12 16 10 72 28 124 40 52 11 104 24
115 29 11 5 44 11 73 13 66 5 111 -21 124 -70 9 -34 36 -44 67 -24 11 7 9 13
-9 31 -25 25 -18 37 27 46 26 5 37 1 59 -21 22 -22 32 -26 60 -20 39 7 41 11
17 37 -16 18 -15 20 5 41 14 13 35 22 54 22 30 0 40 10 52 47 3 10 21 19 48
23 52 9 98 31 98 48 -1 15 -36 57 -47 56 -4 -1 -28 -7 -53 -15z"/>
<path d="M1040 2869 c0 -8 4 -30 10 -49 14 -49 4 -73 -26 -66 -23 6 -24 5 -24
-54 0 -52 3 -62 24 -76 14 -8 34 -31 46 -50 22 -39 40 -38 32 1 -4 24 -2 25
46 25 28 0 54 5 57 10 11 18 -5 48 -41 71 -31 22 -93 122 -94 153 -1 18 -30
53 -30 35z"/>
<path d="M1034 2525 c12 -55 101 -215 119 -215 13 0 7 16 -22 61 -16 24 -39
69 -51 101 -24 65 -58 104 -46 53z"/>
<path d="M1263 2432 c7 -68 -3 -93 -28 -72 -9 7 -2 -10 16 -39 56 -90 119
-127 106 -62 -3 14 -13 61 -21 105 -17 85 -37 126 -63 126 -13 0 -15 -9 -10
-58z"/>
<path d="M4495 2137 c-4 -21 -5 -58 -1 -83 7 -57 50 -140 74 -146 13 -4 30
-32 52 -84 18 -44 47 -106 65 -139 18 -33 35 -74 38 -91 3 -16 22 -48 43 -70
l37 -39 -6 33 c-4 17 -22 56 -42 84 -19 29 -35 60 -35 69 0 9 -9 42 -21 75
-13 38 -19 74 -16 102 4 35 0 49 -19 72 -13 15 -24 37 -24 49 0 22 -24 29 -35
11 -10 -16 -44 -11 -65 10 -13 13 -20 34 -21 63 0 23 -4 60 -8 82 l-8 40 -8
-38z"/>
<path d="M1754 2075 c-8 -20 4 -35 27 -35 23 0 26 35 3 44 -22 8 -24 8 -30 -9z"/>
<path d="M4690 1990 c-13 -8 -12 -10 3 -10 9 0 17 5 17 10 0 12 -1 12 -20 0z"/>
<path d="M1895 1980 c3 -5 11 -10 16 -10 6 0 7 5 4 10 -3 6 -11 10 -16 10 -6
0 -7 -4 -4 -10z"/>
<path d="M4730 1771 c0 -6 5 -13 10 -16 6 -3 10 1 10 9 0 9 -4 16 -10 16 -5 0
-10 -4 -10 -9z"/>
<path d="M4800 1433 c0 -10 5 -25 10 -33 8 -12 10 -9 10 12 0 15 -4 30 -10 33
-5 3 -10 -2 -10 -12z"/>
<path d="M2676 1344 c-4 -11 0 -15 16 -12 12 2 23 9 26 16 6 18 -35 15 -42 -4z"/>
<path d="M2810 1315 c0 -27 20 -41 45 -31 21 8 3 50 -24 54 -17 3 -21 -2 -21
-23z"/>
<path d="M2753 1160 c4 -65 12 -88 56 -177 30 -59 56 -127 62 -160 15 -91 19
-103 29 -103 29 0 -1 166 -47 254 -54 106 -61 122 -72 176 -19 91 -33 96 -28
10z"/>
<path d="M5264 1104 c8 -33 23 -51 33 -41 10 11 -10 60 -26 65 -11 4 -12 -2
-7 -24z"/>
<path d="M3540 650 c0 -5 7 -10 15 -10 8 0 15 5 15 10 0 6 -7 10 -15 10 -8 0
-15 -4 -15 -10z"/>
<path d="M2487 413 c-10 -9 -9 -23 2 -23 5 0 11 7 15 15 5 15 -5 20 -17 8z"/>
<path d="M5678 408 c-3 -7 -2 -35 1 -63 4 -37 11 -51 24 -53 16 -3 18 3 15 60
-2 48 -7 64 -19 66 -9 2 -19 -3 -21 -10z"/>
<path d="M2481 324 c0 -11 3 -14 6 -6 3 7 2 16 -1 19 -3 4 -6 -2 -5 -13z"/>
<path d="M4645 173 c-9 -66 -20 -98 -32 -98 -20 0 -25 -13 -18 -44 5 -24 12
-31 31 -31 18 0 24 5 24 20 0 12 7 35 16 53 18 33 22 87 10 125 -12 36 -24 25
-31 -25z"/>
<path d="M3121 160 c0 -8 4 -24 9 -35 5 -13 9 -14 9 -5 0 8 -4 24 -9 35 -5 13
-9 14 -9 5z"/>
<path d="M3140 84 c0 -10 5 -26 10 -34 8 -11 9 -7 4 15 -8 37 -14 45 -14 19z"/>
<path d="M5663 40 c-22 -35 -22 -35 -2 -38 28 -5 31 0 27 40 l-3 33 -22 -35z"/>
</g>
</svg>
